<svg version="1.2" xmlns="http://www.w3.org/2000/svg" viewBox="0 0 698 698" width="698" height="698"><defs><linearGradient id="P" gradientUnits="userSpaceOnUse"/><linearGradient id="g1" x2="1" href="#P" gradientTransform="matrix(0,-698,698,0,349,698)"><stop stop-color="#808080" stop-opacity=".25"/><stop offset=".54" stop-color="#808080" stop-opacity=".12"/><stop offset="1" stop-color="#808080" stop-opacity=".1"/></linearGradient></defs><style>.a{fill:url(#g1)}.b{fill:#f5f5f5}.c{fill:#007bff}.d{fill:#333}.e{opacity:.1}.f{fill:#fdb797}</style><g style="opacity:.5"><path class="a" d="m349 698c-193 0-349-156-349-349 0-193 156-349 349-349 193 0 349 156 349 349 0 193-156 349-349 349z"/></g><path class="b" d="m349.7 688.4c-188.9 0-341.7-152.7-341.7-341.6 0-189 152.8-341.7 341.7-341.7 188.9 0 341.6 152.7 341.6 341.7 0 188.9-152.7 341.6-341.6 341.6z"/><path class="c" d="m350 689.8c16.6 0 33.1-1.2 49.5-3.6 16.4-2.4 32.7-6 48.5-10.7 15.9-4.8 31.4-10.7 46.4-17.7 15.1-7 29.6-15.1 43.4-24.2-12.6-68.8-60.5-72.8-60.5-72.8h-264.2c0 0-45.2 3.7-59.3 67 14.2 10.1 29.2 19 44.8 26.7 15.7 7.7 31.9 14.3 48.5 19.5 16.6 5.2 33.6 9.2 50.8 11.8 17.3 2.7 34.7 4 52.1 4z"/><path class="d" d="m346.4 504.5c-91.2 0-164.9-73.7-164.9-164.9 0-91.2 73.7-164.9 164.9-164.9 91.2 0 164.9 73.7 164.9 164.9 0 91.2-73.7 164.9-164.9 164.9z"/><path class="e" d="m293.1 476.9h105.7v84.6c0 6.9-1.4 13.8-4 20.2-2.7 6.4-6.6 12.2-11.5 17.1-4.9 4.9-10.7 8.8-17.1 11.5-6.4 2.6-13.3 4-20.2 4-6.9 0-13.8-1.4-20.2-4-6.4-2.7-12.3-6.6-17.2-11.5-4.9-4.9-8.8-10.7-11.4-17.1-2.7-6.4-4-13.3-4-20.2v-84.6z"/><path class="f" d="m296.5 473h99q0.7 0 1.3 0.3 0.6 0.2 1.1 0.7 0.4 0.5 0.7 1.1 0.2 0.6 0.3 1.3v81.1c0 7-1.4 13.8-4.1 20.3-2.6 6.4-6.5 12.2-11.4 17.1-4.9 4.9-10.8 8.8-17.2 11.5-6.4 2.6-13.3 4-20.2 4-6.9 0-13.8-1.4-20.2-4.1-6.4-2.6-12.3-6.5-17.2-11.4-4.9-4.9-8.8-10.7-11.4-17.1-2.7-6.5-4-13.3-4-20.3v-81.1q0-0.7 0.2-1.3 0.3-0.6 0.7-1.1 0.5-0.5 1.1-0.7 0.6-0.3 1.3-0.3z"/><path class="e" d="m293.3 516.8c8.5 3.2 17.2 5.6 26 7.2 8.9 1.6 17.8 2.4 26.8 2.4 9 0.1 18-0.7 26.9-2.3 8.8-1.5 17.6-3.9 26-7v-13h-105.7z"/><path class="f" d="m346.4 523.9c-83.8 0-151.5-67.7-151.5-151.5 0-83.7 67.7-151.4 151.5-151.4 83.7 0 151.4 67.7 151.4 151.4 0 83.8-67.7 151.5-151.4 151.5z"/><path class="e" d="m238.5 234.7c0 0 63.8 129.5 243.9 54.3l-41.9-65.7-74.4-26.7z"/><path class="d" d="m238.5 232.8c0 0 63.8 129.5 243.9 54.3l-41.9-65.8-74.4-26.6z"/><path class="d" d="m237.9 224q1.6-5 3.8-9.7 2.2-4.8 5-9.2 2.7-4.5 6-8.6 3.2-4.1 6.9-7.8c29.8-29.4 78.6-35.6 103.7-69.2 6 9.3 1.4 23.6-9 27.6 24-0.1 51.8-2.2 65.4-22 1.6 3.9 2.8 8 3.3 12.2 0.5 4.2 0.4 8.5-0.2 12.6-0.7 4.2-2 8.3-3.8 12.1-1.8 3.8-4.1 7.4-6.9 10.5 21.3 1 44 15.4 45.3 36.7 1 14.2-8 27.5-19.5 35.7-11.6 8.1-25.8 11.8-39.6 14.9-40.4 8.9-186.8 46.3-160.4-35.8z"/><path class="f" d="m194.9 398.7c-7.8 0-14.1-11.8-14.1-26.4 0-14.6 6.3-26.4 14.1-26.4 7.8 0 14.1 11.8 14.1 26.4 0 14.6-6.3 26.4-14.1 26.4z"/><path class="f" d="m497.8 398.7c-7.8 0-14.1-11.8-14.1-26.4 0-14.6 6.3-26.4 14.1-26.4 7.8 0 14.1 11.8 14.1 26.4 0 14.6-6.3 26.4-14.1 26.4z"/></svg>